<?xml version="1.0" encoding="UTF-8"?>
<svg width="121px" height="24px" viewBox="0 0 182 36" version="1.1" xmlns="http://www.w3.org/2000/svg" xmlns:xlink="http://www.w3.org/1999/xlink">
    <g id="CKB-CookBook" stroke="none" stroke-width="1" fill="none" fill-rule="evenodd">
        <g id="画板" transform="translate(-560.000000, -720.000000)" fill-rule="nonzero" stroke="#733DFF">
            <g id="cookbook_02" transform="translate(561.000000, 721.000000)">
                <path d="M7.29336537,29.7527928 C6.74092163,29.7527928 6.36339203,29.6549392 6.16077656,29.4592319 C5.95816109,29.2635246 5.85685336,28.903582 5.85685336,28.3794039 L5.85685336,28.3794039 L5.85685336,7.55958959 C5.85685336,7.01636971 5.95816109,6.65166659 6.16077656,6.46548023 C6.36339203,6.27929386 6.74092163,6.18620068 7.29336537,6.18620068 L7.29336537,6.18620068 L8.08910596,6.18680367 L9.63373231,6.18620068 C10.141678,6.18620068 10.5001636,6.25975579 10.7091889,6.406866 L10.7805675,6.46548023 C10.9736854,6.65166659 11.0702443,7.01636971 11.0702443,7.55958959 L11.0702443,7.55958959 L11.0702443,12.5334631 L16.9263062,12.5334631 L16.9263062,6.95659966 C16.9263062,5.36396572 16.4931101,4.12968764 15.6267179,3.25376542 C14.7603258,2.3778432 13.3546809,1.93988209 11.4097835,1.93988209 L11.4097835,1.93988209 L8.08958084,1.93988209 L5.51652269,1.93988209 C3.57162526,1.93988209 2.16598045,2.3778432 1.29958827,3.25376542 C0.433196091,4.12968764 1.72760338e-13,5.36396572 1.72760338e-13,6.95659966 L1.72760338e-13,6.95659966 L1.72760338e-13,28.9823938 C1.72760338e-13,30.5750278 0.433196091,31.8093058 1.29958827,32.6852281 C2.16598045,33.5611503 3.57162526,33.9991114 5.51652269,33.9991114 L5.51652269,33.9991114 L8.6949262,34 L11.4097835,33.9991114 C13.2402752,33.9991114 14.5930899,33.6111597 15.4682274,32.8352563 L15.6267179,32.6852281 C16.4931101,31.8093058 16.9263062,30.5750278 16.9263062,28.9823938 L16.9263062,28.9823938 L16.9263062,23.494392 L11.0702443,23.494392 L11.0702443,28.3794039 C11.0702443,28.903582 10.9736854,29.2635246 10.7805675,29.4592319 C10.5874496,29.6549392 10.2051712,29.7527928 9.63373231,29.7527928 L9.63373231,29.7527928 L8.08958084,29.7527928 L7.29336537,29.7527928 Z" id="C" fill="#733DFF"></path>
                <path d="M26.9520248,9.03056767 C25.0071273,9.03056767 23.6199501,9.46852878 22.790493,10.344451 C21.9610359,11.2203732 21.5463074,12.4546513 21.5463074,14.0472852 L21.5463074,14.0472852 L21.5463074,24.8289039 L21.5463074,28.9538311 C21.5463074,30.5464651 21.9610359,31.7807432 22.790493,32.6566654 C23.6199501,33.5325876 25.0071273,33.9705487 26.9520248,33.9705487 L26.9520248,33.9705487 L29.8469679,33.9705487 L32.6751202,33.9705487 C34.5056119,33.9705487 35.8420678,33.582597 36.6844877,32.8066936 L36.836652,32.6566654 C37.6661091,31.7807432 38.0808376,30.5464651 38.0808376,28.9538311 L38.0808376,28.9538311 L38.0802475,23.0888019 L38.0808376,14.0472852 C38.0808376,12.5608269 37.719563,11.3865363 36.9970137,10.5244135 L36.836652,10.344451 C36.0071949,9.46852878 34.6200177,9.03056767 32.6751202,9.03056767 L32.6751202,9.03056767 L29.9318968,9.03056767 L29.6952482,9.03056767 L26.9520248,9.03056767 Z M29.4965901,29.6567905 L28.6331,29.6567905 C28.0806562,29.6567905 27.7031266,29.5589368 27.5005112,29.3632296 C27.2978957,29.1675223 27.196588,28.8078441 27.196588,28.2841949 L27.196588,28.2841949 L27.1957445,22.861316 L27.196588,14.7169214 C27.196588,14.2345295 27.2766336,13.8929788 27.4367248,13.6922695 L27.5005112,13.6236055 C27.7031266,13.4374191 28.0806562,13.3443259 28.6331,13.3443259 L28.6331,13.3443259 L29.6950063,13.3443259 L30.994045,13.3443259 C31.5019908,13.3443259 31.8604763,13.417881 32.0695017,13.5649912 L32.1408802,13.6236055 C32.3339981,13.8097918 32.430557,14.1742305 32.430557,14.7169214 L32.430557,14.7169214 L32.430557,24.8011347 L32.430557,28.2841949 C32.430557,28.8078441 32.3339981,29.1675223 32.1408802,29.3632296 C31.9477624,29.5589368 31.565484,29.6567905 30.994045,29.6567905 L30.994045,29.6567905 L29.4965901,29.6567905 Z M48.3286924,9.03056767 C46.383795,9.03056767 44.9966177,9.46852878 44.1671606,10.344451 C43.3377036,11.2203732 42.922975,12.4546513 42.922975,14.0472852 L42.922975,14.0472852 L42.922975,24.8289039 L42.922975,28.9538311 C42.922975,30.5464651 43.3377036,31.7807432 44.1671606,32.6566654 C44.9966177,33.5325876 46.383795,33.9705487 48.3286924,33.9705487 L48.3286924,33.9705487 L51.2228998,33.9705487 L54.0517879,33.9705487 C55.8822796,33.9705487 57.2187354,33.582597 58.0611554,32.8066936 L58.2133196,32.6566654 C59.0427767,31.7807432 59.4575052,30.5464651 59.4575052,28.9538311 L59.4575052,28.9538311 L59.4571924,23.0888019 L59.4575052,14.0472852 C59.4575052,12.5608269 59.0962306,11.3865363 58.3736813,10.5244135 L58.2133196,10.344451 C57.3838626,9.46852878 55.9966853,9.03056767 54.0517879,9.03056767 L54.0517879,9.03056767 L51.3085644,9.03056767 L51.0719159,9.03056767 L48.3286924,9.03056767 Z M50.8732577,29.6567905 L50.0097676,29.6567905 C49.4573239,29.6567905 49.0797943,29.5589368 48.8771788,29.3632296 C48.6745633,29.1675223 48.5732556,28.8078441 48.5732556,28.2841949 L48.5732556,28.2841949 L48.5726895,22.861316 L48.5732556,14.7169214 C48.5732556,14.2345295 48.6533012,13.8929788 48.8133924,13.6922695 L48.8771788,13.6236055 C49.0797943,13.4374191 49.4573239,13.3443259 50.0097676,13.3443259 L50.0097676,13.3443259 L51.0709382,13.3443259 L52.3707127,13.3443259 C52.8786584,13.3443259 53.2371439,13.417881 53.4461693,13.5649912 L53.5175479,13.6236055 C53.7106658,13.8097918 53.8072247,14.1742305 53.8072247,14.7169214 L53.8072247,14.7169214 L53.8072247,24.8011347 L53.8072247,28.2841949 C53.8072247,28.8078441 53.7106658,29.1675223 53.5175479,29.3632296 C53.32443,29.5589368 52.9421516,29.6567905 52.3707127,29.6567905 L52.3707127,29.6567905 L50.8732577,29.6567905 Z" id="oo" fill="#FFFFFF"></path>
                <path d="M77.2195446,33.9705487 L83.5077473,33.9705487 L76.9551947,17.8842054 L83.5425718,1.93988209 L77.2543691,1.93988209 L70.8862283,17.8842054 L77.2195446,33.9705487 Z M70.6654091,33.9705487 L70.6654091,1.93988209 L64.8370486,1.93988209 L64.8370486,33.9705487 L70.6654091,33.9705487 Z M108.744336,33.9705487 C110.689233,33.9705487 112.094878,33.5325876 112.96127,32.6566654 C113.827663,31.7807432 114.260859,30.5464651 114.260859,28.9538311 L114.260859,28.9538311 L114.260859,21.4053492 C114.260859,20.4225814 114.095706,19.6380334 113.765401,19.051705 C113.435095,18.4653766 112.893996,18.0471185 112.142102,17.7969305 C112.893996,17.5208246 113.435095,17.0483503 113.765401,16.3795075 C114.095706,15.7106647 114.260859,14.8771898 114.260859,13.8790828 L114.260859,13.8790828 L114.260859,6.95659966 C114.260859,5.36396572 113.827663,4.12968764 112.96127,3.25376542 C112.094878,2.3778432 110.689233,1.93988209 108.744336,1.93988209 L108.744336,1.93988209 L96.6048203,1.93988209 L96.6048203,33.9705487 L108.744336,33.9705487 Z M107.034768,15.6356877 L102.394399,15.6356877 L102.394399,6.18620068 L107.034768,6.18620068 C107.606207,6.18620068 107.988485,6.27929386 108.181603,6.46548023 C108.374721,6.65166659 108.47128,7.01636971 108.47128,7.55958959 L108.47128,7.55958959 L108.47128,14.2630922 C108.47128,14.7867413 108.374721,15.1464195 108.181603,15.3421268 C107.988485,15.537834 107.606207,15.6356877 107.034768,15.6356877 L107.034768,15.6356877 Z M107.034768,29.7242301 L102.394399,29.7242301 L102.394399,19.8827997 L107.034768,19.8827997 C107.606207,19.8827997 107.988485,19.9758928 108.181603,20.1620792 C108.374721,20.3482656 108.47128,20.7127042 108.47128,21.2553952 L108.47128,21.2553952 L108.47128,28.3508412 C108.47128,28.8750193 108.374721,29.234962 108.181603,29.4306692 C107.988485,29.6263765 107.606207,29.7242301 107.034768,29.7242301 L107.034768,29.7242301 Z" id="KB" fill="#733DFF"></path>
                <path d="M124.792937,9.03056767 C122.848039,9.03056767 121.460862,9.46852878 120.631405,10.344451 C119.801948,11.2203732 119.387219,12.4546513 119.387219,14.0472852 L119.387219,14.0472852 L119.387219,24.8289039 L119.387219,28.9538311 C119.387219,30.5464651 119.801948,31.7807432 120.631405,32.6566654 C121.460862,33.5325876 122.848039,33.9705487 124.792937,33.9705487 L124.792937,33.9705487 L127.687951,33.9705487 L130.516032,33.9705487 C132.346524,33.9705487 133.68298,33.582597 134.5254,32.8066936 L134.677564,32.6566654 C135.507021,31.7807432 135.92175,30.5464651 135.92175,28.9538311 L135.92175,28.9538311 L135.921231,23.0888019 L135.92175,14.0472852 C135.92175,12.5608269 135.560475,11.3865363 134.837926,10.5244135 L134.677564,10.344451 C133.848107,9.46852878 132.46093,9.03056767 130.516032,9.03056767 L130.516032,9.03056767 L127.772809,9.03056767 L127.53616,9.03056767 L124.792937,9.03056767 Z M127.337502,29.6567905 L126.474012,29.6567905 C125.921568,29.6567905 125.544039,29.5589368 125.341423,29.3632296 C125.138808,29.1675223 125.0375,28.8078441 125.0375,28.2841949 L125.0375,28.2841949 L125.036728,22.861316 L125.0375,14.7169214 C125.0375,14.2345295 125.117545,13.8929788 125.277637,13.6922695 L125.341423,13.6236055 C125.544039,13.4374191 125.921568,13.3443259 126.474012,13.3443259 L126.474012,13.3443259 L127.535989,13.3443259 L128.834957,13.3443259 C129.342903,13.3443259 129.701388,13.417881 129.910414,13.5649912 L129.981792,13.6236055 C130.17491,13.8097918 130.271469,14.1742305 130.271469,14.7169214 L130.271469,14.7169214 L130.271469,24.8011347 L130.271469,28.2841949 C130.271469,28.8078441 130.17491,29.1675223 129.981792,29.3632296 C129.788674,29.5589368 129.406396,29.6567905 128.834957,29.6567905 L128.834957,29.6567905 L127.337502,29.6567905 Z M146.169604,9.03056767 C144.224707,9.03056767 142.83753,9.46852878 142.008073,10.344451 C141.178615,11.2203732 140.763887,12.4546513 140.763887,14.0472852 L140.763887,14.0472852 L140.763887,24.8289039 L140.763887,28.9538311 C140.763887,30.5464651 141.178615,31.7807432 142.008073,32.6566654 C142.83753,33.5325876 144.224707,33.9705487 146.169604,33.9705487 L146.169604,33.9705487 L149.063883,33.9705487 L151.8927,33.9705487 C153.723191,33.9705487 155.059647,33.582597 155.902067,32.8066936 L156.054232,32.6566654 C156.883689,31.7807432 157.298417,30.5464651 157.298417,28.9538311 L157.298417,28.9538311 L157.298176,23.0888019 L157.298417,14.0472852 C157.298417,12.5608269 156.937143,11.3865363 156.214593,10.5244135 L156.054232,10.344451 C155.224774,9.46852878 153.837597,9.03056767 151.8927,9.03056767 L151.8927,9.03056767 L149.149476,9.03056767 L148.912828,9.03056767 L146.169604,9.03056767 Z M148.71417,29.6567905 L147.85068,29.6567905 C147.298236,29.6567905 146.920706,29.5589368 146.718091,29.3632296 C146.515475,29.1675223 146.414168,28.8078441 146.414168,28.2841949 L146.414168,28.2841949 L146.413673,22.861316 L146.414168,14.7169214 C146.414168,14.2345295 146.494213,13.8929788 146.654304,13.6922695 L146.718091,13.6236055 C146.920706,13.4374191 147.298236,13.3443259 147.85068,13.3443259 L147.85068,13.3443259 L148.911921,13.3443259 L150.211625,13.3443259 C150.71957,13.3443259 151.078056,13.417881 151.287081,13.5649912 L151.35846,13.6236055 C151.551578,13.8097918 151.648137,14.1742305 151.648137,14.7169214 L151.648137,14.7169214 L151.648137,24.8011347 L151.648137,28.2841949 C151.648137,28.8078441 151.551578,29.1675223 151.35846,29.3632296 C151.165342,29.5589368 150.783064,29.6567905 150.211625,29.6567905 L150.211625,29.6567905 L148.71417,29.6567905 Z M168.13908,33.9705487 L168.13908,0 L162.393824,0 L162.393824,33.9705487 L168.13908,33.9705487 Z M173.956361,33.9705487 L180,33.9705487 L174.409871,21.0380014 L180,9.03056767 L173.979313,9.03056767 L168.585468,21.0380014 L173.956361,33.9705487 Z" id="ook" fill="#FFFFFF"></path>
            </g>
        </g>
    </g>
</svg>